<?xml version="1.0" encoding="UTF-8" standalone="no"?>
<!-- Created with Inkscape (http://www.inkscape.org/) -->

<svg
   xmlns:dc="http://purl.org/dc/elements/1.1/"
   xmlns:cc="http://creativecommons.org/ns#"
   xmlns:rdf="http://www.w3.org/1999/02/22-rdf-syntax-ns#"
   xmlns:svg="http://www.w3.org/2000/svg"
   xmlns="http://www.w3.org/2000/svg"
   xmlns:sodipodi="http://sodipodi.sourceforge.net/DTD/sodipodi-0.dtd"
   xmlns:inkscape="http://www.inkscape.org/namespaces/inkscape"
   width="100"
   height="100"
   viewBox="0 0 26.458333 26.458334"
   id="svg2"
   version="1.1"
   inkscape:version="0.91+devel+osxmenu r12922"
   sodipodi:docname="grobal.svg">
  <defs
     id="defs4" />
  <sodipodi:namedview
     id="base"
     pagecolor="#c0c0c0"
     bordercolor="#666666"
     borderopacity="1.0"
     inkscape:pageopacity="0"
     inkscape:pageshadow="2"
     inkscape:zoom="3"
     inkscape:cx="4.6009589"
     inkscape:cy="35.710214"
     inkscape:document-units="px"
     inkscape:current-layer="layer1"
     showgrid="true"
     units="px"
     inkscape:window-width="2160"
     inkscape:window-height="1350"
     inkscape:window-x="290"
     inkscape:window-y="201"
     inkscape:window-maximized="0">
    <inkscape:grid
       type="xygrid"
       id="grid4141" />
  </sodipodi:namedview>
  <metadata
     id="metadata7">
    <rdf:RDF>
      <cc:Work
         rdf:about="">
        <dc:format>image/svg+xml</dc:format>
        <dc:type
           rdf:resource="http://purl.org/dc/dcmitype/StillImage" />
        <dc:title></dc:title>
      </cc:Work>
    </rdf:RDF>
  </metadata>
  <g
     inkscape:label="Layer 1"
     inkscape:groupmode="layer"
     id="layer1"
     transform="translate(0,-270.54165)">
    <g
       id="g4828"
       transform="translate(-4.1204171e-7,0.14569468)" />
    <g
       id="g4862"
       transform="translate(26.458334)">
      <path
         inkscape:connector-curvature="0"
         id="path4826"
         d="m 13.229167,273.71665 0,20.16519"
         style="fill:none;fill-rule:evenodd;stroke:#ffffff;stroke-width:1.0583334;stroke-linecap:butt;stroke-linejoin:miter;stroke-miterlimit:4;stroke-dasharray:none;stroke-opacity:1" />
      <circle
         r="10.054163"
         cy="283.77081"
         cx="13.229167"
         id="path4241"
         style="opacity:1;fill:none;fill-opacity:1;stroke:#ffffff;stroke-width:1.0583334;stroke-linecap:butt;stroke-linejoin:miter;stroke-miterlimit:4;stroke-dasharray:none;stroke-dashoffset:0;stroke-opacity:1" />
      <path
         sodipodi:open="true"
         d="m 13.229167,293.82498 a 4.9187431,10.078057 0 0 1 -4.2597565,-5.03903 4.9187431,10.078057 0 0 1 0,-10.07806 4.9187431,10.078057 0 0 1 4.2597565,-5.03903"
         sodipodi:end="4.712389"
         sodipodi:start="1.5707963"
         sodipodi:ry="10.078057"
         sodipodi:rx="4.9187431"
         sodipodi:cy="283.74692"
         sodipodi:cx="13.229167"
         sodipodi:type="arc"
         style="opacity:1;fill:none;fill-opacity:1;stroke:#ffffff;stroke-width:1.05145514;stroke-linecap:butt;stroke-linejoin:miter;stroke-miterlimit:4;stroke-dasharray:none;stroke-dashoffset:0;stroke-opacity:1"
         id="circle4834" />
      <path
         transform="scale(-1,1)"
         id="path4836"
         style="opacity:1;fill:none;fill-opacity:1;stroke:#ffffff;stroke-width:1.05145514;stroke-linecap:butt;stroke-linejoin:miter;stroke-miterlimit:4;stroke-dasharray:none;stroke-dashoffset:0;stroke-opacity:1"
         sodipodi:type="arc"
         sodipodi:cx="-13.229167"
         sodipodi:cy="283.74692"
         sodipodi:rx="4.9187431"
         sodipodi:ry="10.078057"
         sodipodi:start="1.5707963"
         sodipodi:end="4.712389"
         d="m -13.229167,293.82498 a 4.9187431,10.078057 0 0 1 -4.259756,-5.03903 4.9187431,10.078057 0 0 1 0,-10.07806 4.9187431,10.078057 0 0 1 4.259756,-5.03903"
         sodipodi:open="true" />
      <path
         style="fill:none;fill-rule:evenodd;stroke:#ffffff;stroke-width:1.0583334;stroke-linecap:butt;stroke-linejoin:miter;stroke-miterlimit:4;stroke-dasharray:none;stroke-opacity:1"
         d="m 23.311762,283.79925 -20.16519,0"
         id="path4856"
         inkscape:connector-curvature="0" />
      <path
         inkscape:connector-curvature="0"
         id="path4858"
         d="m 21.960417,278.50758 -17.4625003,0"
         style="fill:none;fill-rule:evenodd;stroke:#ffffff;stroke-width:0.98486018;stroke-linecap:butt;stroke-linejoin:miter;stroke-miterlimit:4;stroke-dasharray:none;stroke-opacity:1" />
      <path
         style="fill:none;fill-rule:evenodd;stroke:#ffffff;stroke-width:0.98486018;stroke-linecap:butt;stroke-linejoin:miter;stroke-miterlimit:4;stroke-dasharray:none;stroke-opacity:1"
         d="m 21.960417,289.06248 -17.4625003,0"
         id="path4860"
         inkscape:connector-curvature="0" />
    </g>
    <path
       style="color:#000000;font-style:normal;font-variant:normal;font-weight:normal;font-stretch:normal;font-size:medium;line-height:normal;font-family:sans-serif;font-variant-ligatures:none;font-variant-position:normal;font-variant-caps:normal;font-variant-numeric:normal;font-variant-alternates:normal;font-feature-settings:normal;text-indent:0;text-align:start;text-decoration:none;text-decoration-line:none;text-decoration-style:solid;text-decoration-color:#000000;letter-spacing:normal;word-spacing:normal;text-transform:none;direction:ltr;block-progression:tb;writing-mode:lr-tb;baseline-shift:baseline;text-anchor:start;white-space:normal;shape-padding:0;clip-rule:nonzero;display:inline;overflow:visible;visibility:visible;opacity:1;isolation:auto;mix-blend-mode:normal;color-interpolation:sRGB;color-interpolation-filters:linearRGB;solid-color:#000000;solid-opacity:1;fill:#ffffff;fill-opacity:1;fill-rule:evenodd;stroke:none;stroke-width:4;stroke-linecap:butt;stroke-linejoin:miter;stroke-miterlimit:4;stroke-dasharray:none;stroke-dashoffset:0;stroke-opacity:1;color-rendering:auto;image-rendering:auto;shape-rendering:auto;text-rendering:auto;enable-background:accumulate"
       d="M 49.998047 9.8300781 C 49.287039 9.8300781 48.589894 9.9239116 47.900391 10.056641 C 26.805428 11.150209 10.001953 28.637848 10.001953 50.001953 C 10.001953 72.06967 27.930352 89.998047 49.998047 89.998047 C 72.065737 89.998047 90 72.06967 90 50.001953 C 90 28.637848 73.191103 11.150209 52.095703 10.056641 C 51.405824 9.9239116 50.709055 9.8300781 49.998047 9.8300781 z M 47.996094 14.091797 L 47.996094 28.248047 L 36.820312 28.248047 C 38.312481 24.037386 40.185753 20.620803 42.224609 18.208984 C 44.105377 15.984145 46.052653 14.636983 47.996094 14.091797 z M 51.998047 14.091797 C 53.944157 14.636664 55.896013 15.983479 57.777344 18.208984 C 59.8162 20.620803 61.68547 24.037386 63.175781 28.248047 L 51.998047 28.248047 L 51.998047 14.091797 z M 39.183594 15.650391 C 36.507382 18.819382 34.281673 23.09219 32.615234 28.248047 L 21.306641 28.248047 C 25.763455 22.372777 31.981098 17.910717 39.183594 15.650391 z M 60.824219 15.65625 C 68.021652 17.917968 74.23802 22.376603 78.693359 28.248047 L 67.380859 28.248047 C 65.71668 23.095049 63.498427 18.824705 60.824219 15.65625 z M 18.837891 31.96875 L 31.556641 31.96875 C 30.269593 37.071708 29.563308 42.56608 29.4375 48.105469 L 14.054688 48.105469 C 14.358043 42.241959 16.065337 36.757267 18.837891 31.96875 z M 35.660156 31.96875 L 47.996094 31.96875 L 47.996094 48.105469 L 33.433594 48.105469 C 33.564759 42.512615 34.306264 36.977338 35.660156 31.96875 z M 51.998047 31.96875 L 64.333984 31.96875 C 65.687876 36.977338 66.431335 42.512615 66.5625 48.105469 L 51.998047 48.105469 L 51.998047 31.96875 z M 68.439453 31.96875 L 81.162109 31.96875 C 83.935803 36.757382 85.645718 42.241761 85.949219 48.105469 L 70.558594 48.105469 C 70.43279 42.566201 69.726446 37.071615 68.439453 31.96875 z M 14.070312 52.105469 L 29.443359 52.105469 C 29.596299 57.617447 30.329237 63.076517 31.632812 68.140625 L 18.898438 68.140625 C 16.122516 63.384449 14.404943 57.934167 14.070312 52.105469 z M 33.439453 52.105469 L 47.996094 52.105469 L 47.996094 68.140625 L 35.738281 68.140625 C 34.365997 63.173539 33.598985 57.672754 33.439453 52.105469 z M 51.998047 52.105469 L 66.556641 52.105469 C 66.397109 57.672754 65.628143 63.173539 64.255859 68.140625 L 51.998047 68.140625 L 51.998047 52.105469 z M 70.552734 52.105469 L 85.933594 52.105469 C 85.598803 57.934395 83.878646 63.384316 81.101562 68.140625 L 68.361328 68.140625 C 69.664936 63.07646 70.399793 57.617521 70.552734 52.105469 z M 21.388672 71.859375 L 32.710938 71.859375 C 34.368156 76.89003 36.562809 81.070243 39.191406 84.179688 C 39.261273 84.262336 39.335645 84.334825 39.40625 84.416016 C 32.152601 82.192384 25.88583 77.741436 21.388672 71.859375 z M 36.923828 71.859375 L 47.996094 71.859375 L 47.996094 85.728516 C 46.052653 85.183332 44.105377 83.836139 42.224609 81.611328 C 40.233014 79.255386 38.398875 75.937702 36.923828 71.859375 z M 51.998047 71.859375 L 63.072266 71.859375 C 61.599162 75.937702 59.768939 79.255386 57.777344 81.611328 C 55.896013 83.836806 53.944157 85.18365 51.998047 85.728516 L 51.998047 71.859375 z M 67.285156 71.859375 L 78.611328 71.859375 C 74.115167 77.738255 67.849168 82.187274 60.599609 84.412109 C 60.66923 84.332028 60.743605 84.261187 60.8125 84.179688 C 63.441093 81.070243 65.629412 76.89003 67.285156 71.859375 z "
       transform="matrix(0.26458333,0,0,0.26458333,0,270.54165)"
       id="path4873" />
  </g>
</svg>
